<svg xmlns="http://www.w3.org/2000/svg" width="1080" height="1350" viewBox="0 0 1080 1350">
<rect width="1080" height="1350" fill="#f4f1eb"/>
<rect x="64" y="64" width="952" height="86" fill="#242424"/>
<text x="96" y="118" font-size="34" font-weight="700" fill="#f8f5ef">EMINAI WATCH</text>
<text x="800" y="118" font-size="24" font-weight="400" fill="#d8cfbf">2026-07-29</text>
<text x="64" y="265" font-size="48" font-weight="700" fill="#1f2933">?? ?? ?? ???</text>
<text x="64" y="345" font-size="36" font-weight="700" fill="#374151">?-?? ??? ?? ??? ??? ???, ???</text>
<text x="64" y="390" font-size="36" font-weight="700" fill="#374151">?? ??? ??? ???? ????.</text>
<rect x="64" y="470" width="952" height="92" rx="14" fill="#ded4c3"/>
<text x="96" y="528" font-size="27" font-weight="700" fill="#303030">?? 37? ? ?? 12? ? ?? 25?</text>
<rect x="64" y="640" width="952" height="165" rx="18" fill="#fffdf8" stroke="#d8cfbf" stroke-width="2"/>
<text x="96" y="698" font-size="34" font-weight="700" fill="#8a5a28">1.</text>
<text x="150" y="698" font-size="31" font-weight="700" fill="#222">?-?? ?? ??</text>
<text x="150" y="750" font-size="25" font-weight="400" fill="#4b5563">???? ?? ??? ?? ???? ????, ??? ????</text>
<text x="150" y="781" font-size="25" font-weight="400" fill="#4b5563">?? ??? ????.</text>
<rect x="64" y="830" width="952" height="165" rx="18" fill="#fffdf8" stroke="#d8cfbf" stroke-width="2"/>
<text x="96" y="888" font-size="34" font-weight="700" fill="#8a5a28">2.</text>
<text x="150" y="888" font-size="31" font-weight="700" fill="#222">?? ??</text>
<text x="150" y="940" font-size="25" font-weight="400" fill="#4b5563">?? ?? ?? ??? ?? ???? ????? ????.</text>
<rect x="64" y="1020" width="952" height="165" rx="18" fill="#fffdf8" stroke="#d8cfbf" stroke-width="2"/>
<text x="96" y="1078" font-size="34" font-weight="700" fill="#8a5a28">3.</text>
<text x="150" y="1078" font-size="31" font-weight="700" fill="#222">??? ??</text>
<text x="150" y="1130" font-size="25" font-weight="400" fill="#4b5563">??? ????? ???? ???100? ?? ??? ????.</text>
<rect x="64" y="1146" width="952" height="129" rx="18" fill="#26352c"/>
<text x="96" y="1202" font-size="28" font-weight="700" fill="#f4f1eb">?? ?? ???</text>
<text x="96" y="1250" font-size="24" font-weight="400" fill="#dbe7df">?? ?? ?? ? ??? ?? ?? ?? ? ?-?? ?? ?? ??</text>
</svg>